<?xml version="1.0" encoding="utf-8"?>
<!-- Generator: Adobe Illustrator 19.2.1, SVG Export Plug-In . SVG Version: 6.00 Build 0)  -->
<svg version="1.1" id="Layer_1" xmlns="http://www.w3.org/2000/svg" xmlns:xlink="http://www.w3.org/1999/xlink" x="0px" y="0px"
	 viewBox="0 0 200 145" style="enable-background:new 0 0 200 145;" xml:space="preserve">
<style type="text/css">
	.st0{fill:none;stroke:#A7A9AC;stroke-width:5.7485;stroke-miterlimit:10;}
	.st1{fill:none;stroke:#A7A9AC;stroke-width:3.0843;stroke-miterlimit:10;}
	.st2{fill:#A7A9AC;}
</style>
<g>
	<path class="st0" d="M188.7,139H11.3c-2.7,0-4.9-2.2-4.9-4.9V10.9C6.4,8.2,8.6,6,11.3,6h177.4c2.7,0,4.9,2.2,4.9,4.9v123.2
		C193.6,136.8,191.4,139,188.7,139z"/>
	<rect x="48.7" y="21.6" class="st1" width="102.7" height="67.4"/>
	<line class="st1" x1="48.7" y1="21.6" x2="151.3" y2="89"/>
	<line class="st1" x1="151.3" y1="21.6" x2="48.7" y2="89"/>
	<g>
		<g>
			<path class="st2" d="M67.9,104.8c1.3-1,2.1-2.4,2.1-3.9c0-3.1-3.4-5.6-7.6-5.6c-4.2,0-7.6,2.5-7.6,5.6c0,3.1,3.4,5.6,7.6,5.6
				c1,0,2-0.1,2.8-0.4l4.3,2.1L67.9,104.8z"/>
			<path class="st2" d="M124.4,105.8H75.6c-1.3,0-2.3-1-2.3-2.3V100c0-1.3,1-2.3,2.3-2.3h48.9c1.3,0,2.3,1,2.3,2.3v3.4
				C126.8,104.7,125.7,105.8,124.4,105.8z"/>
		</g>
		<g>
			<path class="st2" d="M67.9,128.6c1.3-1,2.1-2.4,2.1-3.9c0-3.1-3.4-5.6-7.6-5.6c-4.2,0-7.6,2.5-7.6,5.6c0,3.1,3.4,5.6,7.6,5.6
				c1,0,2-0.1,2.8-0.4l4.3,2.1L67.9,128.6z"/>
			<path class="st2" d="M124.4,129.6H75.6c-1.3,0-2.3-1-2.3-2.3v-3.4c0-1.3,1-2.3,2.3-2.3h48.9c1.3,0,2.3,1,2.3,2.3v3.4
				C126.8,128.6,125.7,129.6,124.4,129.6z"/>
		</g>
		<g>
			<path class="st2" d="M132.1,116.7c-1.3-1-2.1-2.4-2.1-3.9c0-3.1,3.4-5.6,7.6-5.6c4.2,0,7.6,2.5,7.6,5.6c0,3.1-3.4,5.6-7.6,5.6
				c-1,0-2-0.1-2.8-0.4l-4.3,2.1L132.1,116.7z"/>
			<path class="st2" d="M75.6,117.7h48.9c1.3,0,2.3-1,2.3-2.3V112c0-1.3-1-2.3-2.3-2.3H75.6c-1.3,0-2.3,1-2.3,2.3v3.4
				C73.2,116.7,74.3,117.7,75.6,117.7z"/>
		</g>
	</g>
	<line class="st1" x1="48.7" y1="89" x2="48.7" y2="139"/>
	<line class="st1" x1="151.3" y1="89" x2="151.3" y2="139"/>
</g>
</svg>
