<?xml version="1.0" encoding="utf-8"?>
<!-- Generator: Adobe Illustrator 19.2.1, SVG Export Plug-In . SVG Version: 6.00 Build 0)  -->
<svg version="1.1" id="Layer_1" xmlns="http://www.w3.org/2000/svg" xmlns:xlink="http://www.w3.org/1999/xlink" x="0px" y="0px"
	 viewBox="0 0 200 145" style="enable-background:new 0 0 200 145;" xml:space="preserve">
<style type="text/css">
	.st0{fill:none;stroke:#A7A9AC;stroke-width:5.7485;stroke-miterlimit:10;}
	.st1{fill:none;stroke:#A7A9AC;stroke-width:3.0843;stroke-miterlimit:10;}
	.st2{fill:none;stroke:#A7A9AC;stroke-width:3.0843;stroke-linecap:square;stroke-miterlimit:10;}
</style>
<g>
	<path class="st0" d="M188.3,139.5H10.9c-2.7,0-4.9-2.2-4.9-4.9V11.4c0-2.7,2.2-4.9,4.9-4.9h177.4c2.7,0,4.9,2.2,4.9,4.9v123.2
		C193.2,137.3,191,139.5,188.3,139.5z"/>
	<rect x="21.9" y="22.1" class="st1" width="62.4" height="55.6"/>
	<line class="st1" x1="21.9" y1="22.1" x2="84.3" y2="77.7"/>
	<line class="st1" x1="84.3" y1="22.1" x2="21.9" y2="77.7"/>
	<line class="st2" x1="99.2" y1="22.1" x2="176.5" y2="22.1"/>
	<line class="st2" x1="99.2" y1="29" x2="174.2" y2="29"/>
	<line class="st2" x1="99.2" y1="36" x2="168.8" y2="36"/>
	<line class="st2" x1="99.2" y1="42.9" x2="174.2" y2="42.9"/>
	<line class="st2" x1="99.2" y1="49.9" x2="176.5" y2="49.9"/>
	<line class="st2" x1="99.2" y1="56.8" x2="174.2" y2="56.8"/>
	<line class="st2" x1="99.2" y1="63.8" x2="176.5" y2="63.8"/>
	<line class="st2" x1="99.2" y1="70.7" x2="176.5" y2="70.7"/>
	<line class="st2" x1="99.2" y1="77.7" x2="136.3" y2="77.7"/>
	<line class="st2" x1="21.9" y1="91.6" x2="171.9" y2="91.6"/>
	<line class="st2" x1="21.9" y1="98.6" x2="176.5" y2="98.6"/>
	<line class="st2" x1="21.9" y1="105.5" x2="174.2" y2="105.5"/>
	<line class="st2" x1="21.9" y1="112.5" x2="176.5" y2="112.5"/>
	<line class="st2" x1="21.9" y1="119.4" x2="171.1" y2="119.4"/>
	<line class="st2" x1="21.9" y1="126.4" x2="142.9" y2="126.4"/>
</g>
</svg>
